<mxfile host="app.diagrams.net" modified="2023-06-21T09:21:46.848Z" agent="Mozilla/5.0 (Windows NT 10.0; Win64; x64) AppleWebKit/537.36 (KHTML, like Gecko) Chrome/114.0.0.0 Safari/537.36" etag="mVap2w_EnpqB-0sqEdWX" version="21.5.0" type="github">
  <diagram name="Page-1" id="X2O-sdKZSXTlZ_EuOPBw">
    <mxGraphModel dx="1511" dy="764" grid="1" gridSize="10" guides="1" tooltips="1" connect="1" arrows="1" fold="1" page="1" pageScale="1" pageWidth="827" pageHeight="1169" math="0" shadow="0">
      <root>
        <mxCell id="0" />
        <mxCell id="1" parent="0" />
        <mxCell id="9GvyIppYTJ99Te_dVyYs-4" style="edgeStyle=orthogonalEdgeStyle;rounded=0;orthogonalLoop=1;jettySize=auto;html=1;exitX=1;exitY=0.25;exitDx=0;exitDy=0;entryX=0;entryY=0.5;entryDx=0;entryDy=0;" parent="1" source="9GvyIppYTJ99Te_dVyYs-1" target="9GvyIppYTJ99Te_dVyYs-2" edge="1">
          <mxGeometry relative="1" as="geometry" />
        </mxCell>
        <mxCell id="9GvyIppYTJ99Te_dVyYs-5" style="edgeStyle=orthogonalEdgeStyle;rounded=0;orthogonalLoop=1;jettySize=auto;html=1;exitX=1;exitY=0.75;exitDx=0;exitDy=0;entryX=0;entryY=0.5;entryDx=0;entryDy=0;" parent="1" source="9GvyIppYTJ99Te_dVyYs-1" target="9GvyIppYTJ99Te_dVyYs-3" edge="1">
          <mxGeometry relative="1" as="geometry" />
        </mxCell>
        <mxCell id="9GvyIppYTJ99Te_dVyYs-8" style="edgeStyle=orthogonalEdgeStyle;rounded=0;orthogonalLoop=1;jettySize=auto;html=1;exitX=0;exitY=0.5;exitDx=0;exitDy=0;entryX=0.5;entryY=1;entryDx=0;entryDy=0;" parent="1" source="9GvyIppYTJ99Te_dVyYs-6" target="9GvyIppYTJ99Te_dVyYs-1" edge="1">
          <mxGeometry relative="1" as="geometry" />
        </mxCell>
        <mxCell id="9GvyIppYTJ99Te_dVyYs-10" value="EXTENDS" style="edgeLabel;html=1;align=center;verticalAlign=middle;resizable=0;points=[];" parent="9GvyIppYTJ99Te_dVyYs-8" vertex="1" connectable="0">
          <mxGeometry x="0.4122" y="2" relative="1" as="geometry">
            <mxPoint x="52" y="105" as="offset" />
          </mxGeometry>
        </mxCell>
        <mxCell id="9GvyIppYTJ99Te_dVyYs-9" style="edgeStyle=orthogonalEdgeStyle;rounded=0;orthogonalLoop=1;jettySize=auto;html=1;exitX=0;exitY=0.5;exitDx=0;exitDy=0;entryX=0.5;entryY=1;entryDx=0;entryDy=0;" parent="1" source="9GvyIppYTJ99Te_dVyYs-7" target="9GvyIppYTJ99Te_dVyYs-1" edge="1">
          <mxGeometry relative="1" as="geometry" />
        </mxCell>
        <mxCell id="9GvyIppYTJ99Te_dVyYs-11" value="EXTENDS" style="edgeLabel;html=1;align=center;verticalAlign=middle;resizable=0;points=[];" parent="9GvyIppYTJ99Te_dVyYs-9" vertex="1" connectable="0">
          <mxGeometry x="0.6811" relative="1" as="geometry">
            <mxPoint x="50" y="278" as="offset" />
          </mxGeometry>
        </mxCell>
        <mxCell id="9GvyIppYTJ99Te_dVyYs-1" value="&lt;font style=&quot;font-size: 24px;&quot;&gt;Parent Class&lt;/font&gt;" style="rounded=0;whiteSpace=wrap;html=1;" parent="1" vertex="1">
          <mxGeometry x="40" y="60" width="120" height="160" as="geometry" />
        </mxCell>
        <mxCell id="9GvyIppYTJ99Te_dVyYs-2" value="&lt;font style=&quot;font-size: 18px;&quot;&gt;Properties:&lt;br&gt;1, 2, 3&lt;/font&gt;" style="rounded=1;whiteSpace=wrap;html=1;" parent="1" vertex="1">
          <mxGeometry x="200" y="70" width="120" height="60" as="geometry" />
        </mxCell>
        <mxCell id="9GvyIppYTJ99Te_dVyYs-3" value="&lt;font style=&quot;font-size: 18px;&quot;&gt;Methods:&lt;br&gt;A, B, C&lt;/font&gt;" style="rounded=1;whiteSpace=wrap;html=1;" parent="1" vertex="1">
          <mxGeometry x="200" y="150" width="120" height="60" as="geometry" />
        </mxCell>
        <mxCell id="9GvyIppYTJ99Te_dVyYs-14" style="edgeStyle=orthogonalEdgeStyle;rounded=0;orthogonalLoop=1;jettySize=auto;html=1;exitX=1;exitY=0.5;exitDx=0;exitDy=0;entryX=0;entryY=0.5;entryDx=0;entryDy=0;" parent="1" source="9GvyIppYTJ99Te_dVyYs-6" target="9GvyIppYTJ99Te_dVyYs-12" edge="1">
          <mxGeometry relative="1" as="geometry" />
        </mxCell>
        <mxCell id="9GvyIppYTJ99Te_dVyYs-15" style="edgeStyle=orthogonalEdgeStyle;rounded=0;orthogonalLoop=1;jettySize=auto;html=1;exitX=1;exitY=0.5;exitDx=0;exitDy=0;entryX=0;entryY=0.5;entryDx=0;entryDy=0;" parent="1" source="9GvyIppYTJ99Te_dVyYs-6" target="9GvyIppYTJ99Te_dVyYs-13" edge="1">
          <mxGeometry relative="1" as="geometry" />
        </mxCell>
        <mxCell id="9GvyIppYTJ99Te_dVyYs-6" value="&lt;font size=&quot;3&quot;&gt;1st Child Class&lt;br&gt;&lt;/font&gt;" style="rounded=0;whiteSpace=wrap;html=1;" parent="1" vertex="1">
          <mxGeometry x="200" y="330" width="120" height="120" as="geometry" />
        </mxCell>
        <mxCell id="9GvyIppYTJ99Te_dVyYs-18" style="edgeStyle=orthogonalEdgeStyle;rounded=0;orthogonalLoop=1;jettySize=auto;html=1;exitX=1;exitY=0.5;exitDx=0;exitDy=0;entryX=0;entryY=0.5;entryDx=0;entryDy=0;" parent="1" source="9GvyIppYTJ99Te_dVyYs-7" target="9GvyIppYTJ99Te_dVyYs-16" edge="1">
          <mxGeometry relative="1" as="geometry" />
        </mxCell>
        <mxCell id="9GvyIppYTJ99Te_dVyYs-19" style="edgeStyle=orthogonalEdgeStyle;rounded=0;orthogonalLoop=1;jettySize=auto;html=1;exitX=1;exitY=0.5;exitDx=0;exitDy=0;entryX=0;entryY=0.5;entryDx=0;entryDy=0;" parent="1" source="9GvyIppYTJ99Te_dVyYs-7" target="9GvyIppYTJ99Te_dVyYs-17" edge="1">
          <mxGeometry relative="1" as="geometry" />
        </mxCell>
        <mxCell id="9GvyIppYTJ99Te_dVyYs-7" value="&lt;font size=&quot;3&quot;&gt;2nd Child Class&lt;br&gt;&lt;/font&gt;" style="rounded=0;whiteSpace=wrap;html=1;" parent="1" vertex="1">
          <mxGeometry x="200" y="490" width="120" height="120" as="geometry" />
        </mxCell>
        <mxCell id="9GvyIppYTJ99Te_dVyYs-21" style="edgeStyle=orthogonalEdgeStyle;rounded=0;orthogonalLoop=1;jettySize=auto;html=1;exitX=1;exitY=0.5;exitDx=0;exitDy=0;entryX=0.006;entryY=0.547;entryDx=0;entryDy=0;entryPerimeter=0;" parent="1" source="9GvyIppYTJ99Te_dVyYs-12" target="9GvyIppYTJ99Te_dVyYs-20" edge="1">
          <mxGeometry relative="1" as="geometry" />
        </mxCell>
        <mxCell id="9GvyIppYTJ99Te_dVyYs-12" value="Inherit:&lt;br&gt;1, 2, 3&amp;nbsp; &amp;amp;&amp;nbsp; A, B, C" style="rounded=1;whiteSpace=wrap;html=1;" parent="1" vertex="1">
          <mxGeometry x="360" y="330" width="120" height="40" as="geometry" />
        </mxCell>
        <mxCell id="9GvyIppYTJ99Te_dVyYs-22" style="edgeStyle=orthogonalEdgeStyle;rounded=0;orthogonalLoop=1;jettySize=auto;html=1;exitX=1;exitY=0.5;exitDx=0;exitDy=0;entryX=0;entryY=0.554;entryDx=0;entryDy=0;entryPerimeter=0;" parent="1" source="9GvyIppYTJ99Te_dVyYs-13" target="9GvyIppYTJ99Te_dVyYs-20" edge="1">
          <mxGeometry relative="1" as="geometry" />
        </mxCell>
        <mxCell id="9GvyIppYTJ99Te_dVyYs-13" value="add new:&lt;br&gt;&lt;b style=&quot;font-style: italic;&quot;&gt;4, 5 &lt;/b&gt;&amp;amp;&lt;b style=&quot;font-style: italic;&quot;&gt; D, E&lt;/b&gt;" style="rounded=1;whiteSpace=wrap;html=1;" parent="1" vertex="1">
          <mxGeometry x="360" y="410" width="120" height="40" as="geometry" />
        </mxCell>
        <mxCell id="9GvyIppYTJ99Te_dVyYs-24" style="edgeStyle=orthogonalEdgeStyle;rounded=0;orthogonalLoop=1;jettySize=auto;html=1;exitX=1;exitY=0.5;exitDx=0;exitDy=0;entryX=0;entryY=0.5;entryDx=0;entryDy=0;" parent="1" source="9GvyIppYTJ99Te_dVyYs-16" target="9GvyIppYTJ99Te_dVyYs-23" edge="1">
          <mxGeometry relative="1" as="geometry" />
        </mxCell>
        <mxCell id="9GvyIppYTJ99Te_dVyYs-16" value="Inherit:&lt;br&gt;1, 2, 3&amp;nbsp; &amp;amp;&amp;nbsp; A, B, C" style="rounded=1;whiteSpace=wrap;html=1;" parent="1" vertex="1">
          <mxGeometry x="360" y="490" width="120" height="40" as="geometry" />
        </mxCell>
        <mxCell id="9GvyIppYTJ99Te_dVyYs-25" style="edgeStyle=orthogonalEdgeStyle;rounded=0;orthogonalLoop=1;jettySize=auto;html=1;exitX=1;exitY=0.5;exitDx=0;exitDy=0;entryX=0;entryY=0.5;entryDx=0;entryDy=0;" parent="1" source="9GvyIppYTJ99Te_dVyYs-17" target="9GvyIppYTJ99Te_dVyYs-23" edge="1">
          <mxGeometry relative="1" as="geometry" />
        </mxCell>
        <mxCell id="9GvyIppYTJ99Te_dVyYs-17" value="add new:&lt;br&gt;&lt;b style=&quot;font-style: italic;&quot;&gt;6, 7 &lt;/b&gt;&amp;amp;&lt;b style=&quot;font-style: italic;&quot;&gt; F, G&lt;/b&gt;" style="rounded=1;whiteSpace=wrap;html=1;" parent="1" vertex="1">
          <mxGeometry x="360" y="570" width="120" height="40" as="geometry" />
        </mxCell>
        <mxCell id="9GvyIppYTJ99Te_dVyYs-20" value="&lt;font style=&quot;font-size: 18px;&quot;&gt;1st Child Class&lt;br&gt;Properties: 1, 2, 3, &lt;b&gt;&lt;i&gt;4, 5&lt;/i&gt;&lt;/b&gt;&lt;br&gt;Methods: A, B, C, &lt;b&gt;&lt;i&gt;D, E&lt;/i&gt;&lt;/b&gt;&lt;/font&gt;" style="rounded=0;whiteSpace=wrap;html=1;" parent="1" vertex="1">
          <mxGeometry x="520" y="330" width="240" height="120" as="geometry" />
        </mxCell>
        <mxCell id="9GvyIppYTJ99Te_dVyYs-23" value="&lt;font style=&quot;font-size: 18px;&quot;&gt;2nd Child Class&lt;br&gt;Properties: 1, 2, 3, &lt;b&gt;&lt;i&gt;6, 7&lt;/i&gt;&lt;/b&gt;&lt;br&gt;Methods: A, B, C, &lt;b&gt;&lt;i&gt;F, G&lt;/i&gt;&lt;/b&gt;&lt;/font&gt;" style="rounded=0;whiteSpace=wrap;html=1;" parent="1" vertex="1">
          <mxGeometry x="520" y="490" width="240" height="120" as="geometry" />
        </mxCell>
        <mxCell id="qUHQeJ4wNZylrGG2xAwJ-4" style="edgeStyle=orthogonalEdgeStyle;rounded=0;orthogonalLoop=1;jettySize=auto;html=1;exitX=1;exitY=0.5;exitDx=0;exitDy=0;entryX=0.5;entryY=1;entryDx=0;entryDy=0;" edge="1" parent="1" source="qUHQeJ4wNZylrGG2xAwJ-1" target="qUHQeJ4wNZylrGG2xAwJ-3">
          <mxGeometry relative="1" as="geometry" />
        </mxCell>
        <mxCell id="qUHQeJ4wNZylrGG2xAwJ-1" value="&lt;h2&gt;&lt;font size=&quot;3&quot;&gt;super( )&lt;/font&gt;&lt;/h2&gt;" style="shape=trapezoid;perimeter=trapezoidPerimeter;whiteSpace=wrap;html=1;fixedSize=1;" vertex="1" parent="1">
          <mxGeometry x="360" y="250" width="120" height="60" as="geometry" />
        </mxCell>
        <mxCell id="qUHQeJ4wNZylrGG2xAwJ-3" value="&lt;div&gt;&lt;font style=&quot;font-size: 18px;&quot;&gt;`super()` adds the parent properties to the child class.&lt;/font&gt;&lt;/div&gt;&lt;div&gt;&lt;span style=&quot;background-color: initial;&quot;&gt;&lt;font style=&quot;font-size: 18px;&quot;&gt;&lt;br&gt;After calling `super()`, we can then add new properties and/or methods that are unique to the child.&lt;/font&gt;&lt;/span&gt;&lt;/div&gt;" style="rounded=0;whiteSpace=wrap;html=1;" vertex="1" parent="1">
          <mxGeometry x="520" y="60" width="240" height="200" as="geometry" />
        </mxCell>
        <mxCell id="qUHQeJ4wNZylrGG2xAwJ-11" style="edgeStyle=orthogonalEdgeStyle;rounded=0;orthogonalLoop=1;jettySize=auto;html=1;exitX=1;exitY=0.5;exitDx=0;exitDy=0;entryX=0;entryY=0.5;entryDx=0;entryDy=0;" edge="1" parent="1" source="qUHQeJ4wNZylrGG2xAwJ-6" target="qUHQeJ4wNZylrGG2xAwJ-9">
          <mxGeometry relative="1" as="geometry" />
        </mxCell>
        <mxCell id="qUHQeJ4wNZylrGG2xAwJ-12" style="edgeStyle=orthogonalEdgeStyle;rounded=0;orthogonalLoop=1;jettySize=auto;html=1;exitX=1;exitY=0.5;exitDx=0;exitDy=0;entryX=0;entryY=0.5;entryDx=0;entryDy=0;" edge="1" parent="1" source="qUHQeJ4wNZylrGG2xAwJ-6" target="qUHQeJ4wNZylrGG2xAwJ-10">
          <mxGeometry relative="1" as="geometry" />
        </mxCell>
        <mxCell id="qUHQeJ4wNZylrGG2xAwJ-18" style="edgeStyle=orthogonalEdgeStyle;rounded=0;orthogonalLoop=1;jettySize=auto;html=1;exitX=0.5;exitY=0;exitDx=0;exitDy=0;entryX=0.5;entryY=1;entryDx=0;entryDy=0;" edge="1" parent="1" source="qUHQeJ4wNZylrGG2xAwJ-6" target="9GvyIppYTJ99Te_dVyYs-7">
          <mxGeometry relative="1" as="geometry" />
        </mxCell>
        <mxCell id="qUHQeJ4wNZylrGG2xAwJ-19" value="EXTENDS" style="edgeLabel;html=1;align=center;verticalAlign=middle;resizable=0;points=[];" vertex="1" connectable="0" parent="qUHQeJ4wNZylrGG2xAwJ-18">
          <mxGeometry x="-0.2202" relative="1" as="geometry">
            <mxPoint as="offset" />
          </mxGeometry>
        </mxCell>
        <mxCell id="qUHQeJ4wNZylrGG2xAwJ-6" value="&lt;font size=&quot;3&quot;&gt;3rd Child Class&lt;br&gt;&lt;/font&gt;" style="rounded=0;whiteSpace=wrap;html=1;" vertex="1" parent="1">
          <mxGeometry x="200" y="680" width="120" height="120" as="geometry" />
        </mxCell>
        <mxCell id="qUHQeJ4wNZylrGG2xAwJ-14" style="edgeStyle=orthogonalEdgeStyle;rounded=0;orthogonalLoop=1;jettySize=auto;html=1;exitX=1;exitY=0.5;exitDx=0;exitDy=0;entryX=0;entryY=0.5;entryDx=0;entryDy=0;" edge="1" parent="1" source="qUHQeJ4wNZylrGG2xAwJ-9" target="qUHQeJ4wNZylrGG2xAwJ-13">
          <mxGeometry relative="1" as="geometry" />
        </mxCell>
        <mxCell id="qUHQeJ4wNZylrGG2xAwJ-9" value="Inherit:&lt;br&gt;1, 2, 3, 6, 7&amp;nbsp; &lt;br&gt;&amp;amp;&amp;nbsp;&lt;br&gt;&amp;nbsp;A, B, C, F, G" style="rounded=1;whiteSpace=wrap;html=1;" vertex="1" parent="1">
          <mxGeometry x="360" y="680" width="120" height="70" as="geometry" />
        </mxCell>
        <mxCell id="qUHQeJ4wNZylrGG2xAwJ-15" style="edgeStyle=orthogonalEdgeStyle;rounded=0;orthogonalLoop=1;jettySize=auto;html=1;exitX=1;exitY=0.5;exitDx=0;exitDy=0;entryX=0;entryY=0.5;entryDx=0;entryDy=0;" edge="1" parent="1" source="qUHQeJ4wNZylrGG2xAwJ-10" target="qUHQeJ4wNZylrGG2xAwJ-13">
          <mxGeometry relative="1" as="geometry" />
        </mxCell>
        <mxCell id="qUHQeJ4wNZylrGG2xAwJ-10" value="add new:&lt;br&gt;&lt;b style=&quot;font-style: italic;&quot;&gt;8, 9&amp;nbsp;&lt;/b&gt;&amp;amp;&lt;b style=&quot;font-style: italic;&quot;&gt;&amp;nbsp;H, I&lt;/b&gt;" style="rounded=1;whiteSpace=wrap;html=1;" vertex="1" parent="1">
          <mxGeometry x="360" y="760" width="120" height="40" as="geometry" />
        </mxCell>
        <mxCell id="qUHQeJ4wNZylrGG2xAwJ-13" value="&lt;font style=&quot;font-size: 18px;&quot;&gt;3rd Child Class&lt;br&gt;Properties: 1, 2, 3, 6, 7, &lt;b style=&quot;&quot;&gt;&lt;i&gt;8, 9&lt;/i&gt;&lt;/b&gt;&lt;br&gt;Methods: A, B, C, F, G, &lt;b&gt;&lt;i&gt;H, I&lt;/i&gt;&lt;/b&gt;&lt;/font&gt;" style="rounded=0;whiteSpace=wrap;html=1;" vertex="1" parent="1">
          <mxGeometry x="521" y="680" width="240" height="120" as="geometry" />
        </mxCell>
      </root>
    </mxGraphModel>
  </diagram>
</mxfile>
